PathFileType   4   (X/Y/Z)
DataRate	CameraRate	NumFrames	NumMarkers	Units	OrigDataRate	OrigDataStartFrame	OrigNumFrames
120.0	120.0	9	37	mm	120.0	100	114
Frame#	Time	midhip	hip_r	hip_l	knee_r	knee_l	ankle_r	ankle_l	midasis	asis_r	asis_l	psis_r	psis_l	epicondLat_r	epicondLat_l	epicondMed_r	epicondMed_l	malleolusLat_r	malleolusLat_l	malleolusMedv_r	malleolusMedv_l	neck	subclavicle_r	subclavicle_l	sternalnotch	xyphoidprocess	thighwand_r	thighwand_l	upperleg1_r	upperleg1_l	upperleg2_r	upperleg2_l	shankwand_r	shankwand_l	lowerleg1_r	lowerleg1_l	toe_r	toe_l
 	 	X1	Y1	Z1	X2	Y2	Z2	X3	Y3	Z3	X4	Y4	Z4	X5	Y5	Z5	X6	Y6	Z6	X7	Y7	Z7	X8	Y8	Z8	X9	Y9	Z9	X10	Y10	Z10	X11	Y11	Z11	X12	Y12	Z12	X13	Y13	Z13	X14	Y14	Z14	X15	Y15	Z15	X16	Y16	Z16	X17	Y17	Z17	X18	Y18	Z18	X19	Y19	Z19	X20	Y20	Z20	X21	Y21	Z21	X22	Y22	Z22	X23	Y23	Z23	X24	Y24	Z24	X25	Y25	Z25	X26	Y26	Z26	X27	Y27	Z27	X28	Y28	Z28	X29	Y29	Z29	X30	Y30	Z30	X31	Y31	Z31	X32	Y32	Z32	X33	Y33	Z33	X34	Y34	Z34	X35	Y35	Z35	X36	Y36	Z36	X37	Y37	Z37

	100	0.94167	1090.705	755.232	-245.912	1060.804	760.772	-169.867	1081.086	759.660	-324.164	998.442	405.993	-193.867	1270.275	417.934	-315.396	862.857	72.550	-207.673	1384.119	76.170	-303.914	1197.836	832.124	-230.854	1181.418	833.024	-105.956	1214.253	831.224	-355.753	953.769	906.631	-233.537	958.487	899.919	-287.574	987.125	403.210	-123.324	1283.922	423.695	-385.344	1004.356	413.755	-275.693	1258.224	391.016	-218.748	853.135	74.964	-170.499	1368.797	69.861	-339.771	873.985	75.286	-243.064	1387.282	92.927	-264.914	989.526	1326.111	-241.118	1117.995	1261.565	-210.336	1117.904	1266.153	-292.754	1101.061	1258.800	-264.187	1154.950	1186.415	-266.881	1159.216	521.705	-83.451	1333.145	654.432	-287.636	1130.555	552.371	-111.750	1285.537	640.900	-306.670	1095.393	487.071	-129.929	1307.472	571.242	-300.378	991.333	178.937	-174.243	1330.389	169.325	-410.070	948.131	196.276	-188.890	1335.650	182.798	-363.603	962.304	42.087	-199.130	1479.940	100.127	-326.237
	101	0.95000	1102.605	753.661	-246.300	1072.267	759.319	-170.456	1093.448	758.115	-324.633	1005.842	405.298	-193.671	1281.184	416.397	-314.349	863.910	74.439	-207.364	1407.184	77.888	-304.886	1209.743	830.471	-230.673	1192.595	831.446	-105.853	1226.891	829.496	-355.494	965.882	905.347	-235.411	970.954	898.459	-289.437	993.971	402.904	-123.203	1295.187	421.987	-384.242	1014.184	412.598	-276.342	1267.220	387.441	-218.358	854.247	77.045	-170.187	1392.068	71.259	-340.772	875.174	76.486	-242.654	1410.208	94.901	-266.022	1000.658	1324.001	-241.367	1129.126	1259.506	-210.584	1129.819	1264.440	-293.217	1112.807	1257.046	-264.672	1166.746	1184.651	-267.191	1167.227	519.942	-82.464	1344.458	651.375	-286.847	1139.018	551.022	-111.192	1296.516	637.566	-305.372	1103.804	485.823	-129.661	1317.726	567.303	-299.708	994.399	178.464	-174.004	1350.122	169.910	-410.433	951.153	196.399	-188.940	1355.130	183.549	-364.079	962.804	42.176	-199.051	1502.789	104.243	-327.515
	102	0.95833	1114.613	752.177	-246.608	1083.891	757.934	-170.980	1105.914	756.608	-325.038	1013.597	404.642	-193.419	1292.318	415.071	-313.435	865.160	76.544	-206.981	1428.554	79.469	-305.844	1221.769	828.903	-230.490	1203.944	829.977	-105.797	1239.594	827.830	-355.182	978.120	904.039	-237.248	983.518	897.064	-291.273	1001.194	402.639	-123.032	1306.562	420.471	-383.293	1023.044	411.708	-276.100	1272.869	385.155	-219.552	855.577	79.342	-169.797	1413.624	72.596	-341.762	876.274	78.205	-242.242	1431.012	96.537	-266.976	1011.781	1322.196	-241.903	1139.808	1257.658	-209.805	1141.554	1262.820	-293.835	1124.604	1255.384	-265.253	1178.129	1182.936	-266.781	1175.529	518.270	-81.456	1356.053	648.718	-286.331	1147.944	549.588	-110.388	1308.754	634.957	-304.910	1112.136	484.463	-128.979	1328.174	564.228	-299.585	997.690	178.080	-173.734	1368.711	170.525	-410.843	954.440	196.546	-188.624	1373.261	184.096	-364.516	963.328	42.290	-198.937	1523.943	107.900	-328.789
	103	0.96667	1126.750	750.785	-246.868	1095.688	756.627	-171.461	1118.496	755.156	-325.403	1021.768	404.011	-193.122	1303.723	413.957	-312.670	866.648	78.871	-206.532	1448.156	80.737	-306.706	1233.931	827.427	-230.323	1215.480	828.617	-105.791	1252.381	826.237	-354.856	990.487	902.742	-239.016	996.190	895.750	-293.041	1008.851	402.400	-122.817	1318.113	419.162	-382.514	1030.945	413.039	-276.116	1280.652	385.004	-216.645	857.157	81.866	-169.341	1433.389	73.693	-342.659	877.798	80.229	-241.781	1449.928	98.217	-267.916	1022.973	1320.351	-242.912	1151.876	1256.467	-211.336	1153.427	1261.417	-294.663	1136.429	1253.817	-265.930	1190.534	1181.833	-267.864	1184.163	516.703	-80.434	1367.952	646.533	-286.047	1157.507	548.074	-108.929	1320.531	632.660	-305.944	1120.380	483.167	-128.220	1339.256	562.250	-298.702	1001.233	177.779	-173.420	1386.128	171.035	-411.253	958.365	197.061	-188.325	1389.951	185.346	-365.085	963.880	42.428	-198.786	1543.354	110.923	-329.992
	104	0.97500	1139.040	749.488	-247.121	1107.674	755.407	-171.928	1131.211	753.777	-325.758	1030.408	403.381	-192.780	1315.423	413.040	-312.069	868.413	81.429	-206.026	1465.944	81.538	-307.396	1246.248	826.046	-230.198	1227.220	827.365	-105.837	1265.277	824.728	-354.559	1002.987	901.488	-240.681	1008.979	894.529	-294.697	1017.000	402.165	-122.559	1329.885	418.053	-381.911	1038.098	414.602	-275.272	1293.121	384.748	-213.206	859.016	84.626	-168.828	1451.317	74.390	-343.385	879.446	82.701	-241.323	1467.555	99.715	-268.867	1034.580	1318.560	-244.188	1163.711	1254.535	-212.196	1165.491	1260.326	-295.637	1148.321	1252.362	-266.688	1202.709	1180.561	-269.434	1193.183	515.253	-79.418	1380.168	644.847	-285.963	1167.082	546.409	-107.565	1332.234	631.458	-305.975	1128.873	482.569	-127.034	1351.286	560.797	-297.682	1005.053	177.553	-173.049	1402.356	171.312	-411.607	962.463	197.911	-187.925	1405.837	186.375	-365.919	964.473	42.585	-198.597	1560.994	113.147	-331.055
	105	0.98333	1151.504	748.286	-247.412	1119.864	754.278	-172.411	1144.076	752.485	-326.134	1039.564	402.728	-192.387	1327.420	412.296	-311.637	870.493	84.225	-205.468	1481.911	81.758	-307.850	1258.743	824.766	-230.138	1239.182	826.215	-105.940	1278.304	823.318	-354.336	1015.630	900.302	-242.212	1021.894	893.406	-296.200	1025.701	401.909	-122.249	1341.898	417.122	-381.490	1046.721	414.057	-273.630	1306.993	384.091	-212.236	861.187	87.637	-168.266	1467.397	74.561	-343.876	881.435	85.106	-240.760	1483.239	100.295	-269.456	1046.444	1316.955	-245.377	1175.546	1252.517	-212.738	1177.571	1259.207	-296.562	1160.316	1251.042	-267.519	1214.726	1179.164	-270.853	1202.652	513.929	-78.436	1392.703	643.641	-286.060	1176.641	545.149	-106.373	1344.769	630.987	-305.026	1138.287	481.857	-125.594	1363.838	560.296	-297.312	1009.182	177.393	-172.605	1417.387	171.244	-411.859	966.650	198.769	-187.645	1420.681	186.383	-366.619	965.130	42.763	-198.372	1576.867	114.427	-331.915
	106	0.99167	1164.163	747.185	-247.775	1132.282	753.238	-172.935	1157.111	751.299	-326.558	1049.273	402.024	-191.931	1339.693	411.690	-311.377	872.927	87.271	-204.864	1496.094	81.333	-308.032	1271.434	823.593	-230.164	1251.384	825.160	-106.101	1291.485	822.027	-354.226	1028.428	899.203	-243.583	1034.937	892.386	-297.520	1035.010	401.606	-121.869	1354.144	416.336	-381.247	1057.632	413.629	-273.398	1318.421	383.895	-212.778	863.706	90.909	-167.662	1481.660	74.135	-344.089	883.912	87.872	-240.159	1497.480	100.085	-269.767	1058.049	1315.457	-246.402	1187.521	1251.434	-213.136	1189.506	1257.885	-297.434	1172.413	1249.874	-268.454	1226.923	1178.031	-271.247	1212.638	512.736	-77.522	1405.550	642.857	-286.329	1187.315	544.547	-105.088	1357.630	630.594	-304.889	1148.308	480.458	-124.907	1376.046	560.175	-297.629	1013.652	177.292	-172.070	1431.226	170.750	-411.968	971.611	199.880	-187.275	1434.476	186.265	-366.791	965.883	42.961	-198.117	1591.017	114.654	-332.514
	107	1.00000	1177.040	746.190	-248.231	1144.950	752.283	-173.517	1170.332	750.232	-327.049	1059.569	401.246	-191.394	1352.204	411.186	-311.286	875.762	90.571	-204.221	1508.575	80.265	-307.935	1284.341	822.535	-230.289	1263.847	824.191	-106.321	1304.835	820.879	-354.258	1041.395	898.200	-244.779	1048.106	891.467	-298.641	1044.981	401.230	-121.398	1366.590	415.653	-381.181	1069.184	413.754	-273.955	1329.081	384.320	-212.545	866.610	94.450	-167.027	1494.185	73.100	-344.016	886.942	90.659	-239.454	1510.350	99.048	-269.785	1069.452	1314.154	-247.408	1199.793	1250.868	-213.607	1201.648	1256.700	-298.514	1184.572	1248.856	-269.405	1239.529	1177.243	-271.465	1223.213	511.675	-76.708	1418.696	642.417	-286.768	1199.549	543.775	-104.551	1370.845	630.696	-304.877	1158.546	479.291	-124.767	1388.477	559.680	-297.724	1018.505	177.248	-171.424	1443.906	169.798	-411.912	977.235	200.880	-186.877	1447.415	185.401	-366.698	966.770	43.179	-197.842	1603.540	113.765	-332.810
	108	1.00833	1190.164	745.304	-248.781	1157.891	751.404	-174.167	1183.751	749.300	-327.618	1070.484	400.371	-190.761	1364.896	410.749	-311.361	879.049	94.120	-203.546	1519.483	78.615	-307.586	1297.478	821.601	-230.525	1276.594	823.300	-106.600	1318.361	819.903	-354.449	1054.544	897.295	-245.793	1061.395	890.647	-299.562	1055.663	400.755	-120.815	1379.187	415.038	-381.287	1081.185	412.533	-273.093	1342.460	385.720	-209.879	869.946	98.258	-166.367	1505.098	71.510	-343.681	890.100	93.654	-238.710	1520.695	96.818	-269.170	1081.306	1312.963	-248.785	1211.714	1250.175	-214.655	1214.222	1255.997	-299.849	1196.777	1248.002	-270.378	1252.173	1176.680	-272.317	1234.443	510.746	-76.020	1432.115	642.235	-287.385	1213.593	543.039	-104.805	1384.565	631.121	-304.885	1169.520	478.695	-124.176	1402.002	559.898	-297.149	1023.789	177.261	-170.647	1455.495	168.408	-411.694	982.785	201.731	-186.285	1458.870	183.124	-366.384	967.832	43.412	-197.563	1614.580	111.743	-332.773
